<svg version="1.1" id="Layer_1" xmlns="http://www.w3.org/2000/svg" xmlns:xlink="http://www.w3.org/1999/xlink" x="0px" y="0px"
	 width="100%" viewBox="0 0 2000 1500" enable-background="new 0 0 2000 1500" xml:space="preserve">
<path fill="#142850" opacity="1.000000" stroke="none" 
	d="
M1229.000000,1501.000000 
	C819.333435,1501.000000 410.166901,1501.000000 1.000274,1501.000000 
	C1.000183,1001.000244 1.000183,501.000549 1.000092,1.000610 
	C667.666199,1.000407 1334.332397,1.000407 2000.998901,1.000203 
	C2000.999268,500.999390 2000.999268,1000.998779 2000.999634,1500.999023 
	C1743.833374,1501.000000 1486.666626,1501.000000 1229.000000,1501.000000 
M768.500366,910.568542 
	C726.840576,910.568542 685.180481,910.629761 643.521301,910.468018 
	C639.630920,910.452881 637.699158,911.727722 635.797363,915.028625 
	C578.425110,1014.606445 520.936584,1114.117188 463.473541,1213.642578 
	C462.754028,1214.888794 462.128326,1216.189209 461.294403,1217.777344 
	C821.279175,1217.777344 1180.767456,1217.777344 1540.855957,1217.777344 
	C1539.822388,1215.973022 1539.022827,1214.567627 1538.214600,1213.167236 
	C1481.016357,1114.063843 1423.788818,1014.977112 1366.721924,915.798096 
	C1364.407593,911.776001 1361.941162,910.467651 1357.408203,910.470276 
	C1161.438965,910.584351 965.469666,910.568604 768.500366,910.568542 
M1063.919434,391.560974 
	C1043.083008,355.491394 1022.246643,319.421844 1000.995056,282.633514 
	C941.603455,385.504730 882.653564,487.610931 823.460693,590.137939 
	C942.145325,590.137939 1060.058594,590.137939 1178.570435,590.137939 
	C1140.236572,523.779724 1102.236938,458.000244 1063.919434,391.560974 
M1195.209229,772.500122 
	C1195.151733,748.341858 1195.287842,724.180786 1194.943604,700.026611 
	C1194.800659,689.988953 1191.251831,681.029785 1182.808716,674.858398 
	C1165.227905,662.007935 1137.543091,668.775879 1127.965820,688.155090 
	C1117.953003,708.415466 1107.971924,728.691589 1097.965576,748.955078 
	C1097.218628,750.467468 1096.377441,751.933289 1095.346191,753.856995 
	C1094.382935,751.825928 1093.656982,750.341736 1092.969971,748.839661 
	C1083.572144,728.288940 1074.214478,707.719788 1064.765869,687.192444 
	C1061.657227,680.438965 1057.692139,674.430298 1050.511719,671.164246 
	C1028.020508,660.933777 1004.507446,673.641113 1001.320618,697.877136 
	C1001.017883,700.179626 1001.003113,702.531433 1001.001770,704.860413 
	C1000.981140,739.683228 1000.958313,774.506165 1001.027283,809.328857 
	C1001.033813,812.634399 1001.467834,815.970154 1002.025269,819.237000 
	C1003.050476,825.245056 1006.609436,829.266479 1012.586487,830.498291 
	C1026.500610,833.366028 1039.984985,831.021912 1039.331787,810.842285 
	C1039.288696,809.510742 1039.329102,808.176636 1039.329102,806.843689 
	C1039.329224,788.349243 1039.329224,769.854797 1039.329224,751.360352 
	C1039.329224,749.895874 1039.329224,748.431396 1039.329224,746.966919 
	C1048.823364,761.854919 1056.837280,776.964172 1065.379639,791.768372 
	C1069.685425,799.230469 1074.718994,806.310486 1079.858521,813.240723 
	C1083.490112,818.137573 1088.900269,819.678955 1094.960938,819.254150 
	C1102.332520,818.737427 1106.797974,814.182739 1109.911011,808.235718 
	C1115.150146,798.227539 1119.997192,788.013550 1124.981445,777.872559 
	C1130.074097,767.510986 1135.133545,757.133118 1140.207642,746.762390 
	C1141.118652,748.487061 1141.118530,750.061401 1141.118774,751.635742 
	C1141.121338,769.963562 1140.984009,788.292786 1141.168335,806.618774 
	C1141.332031,822.888855 1150.002808,831.504944 1165.853882,831.513306 
	C1168.843628,831.514893 1171.862793,831.294739 1174.818481,830.847595 
	C1188.316650,828.805603 1195.042358,821.123840 1195.180908,807.489685 
	C1195.296021,796.160889 1195.207520,784.830078 1195.209229,772.500122 
M910.947388,787.335327 
	C913.166931,775.378845 913.062744,763.467590 909.907104,751.690979 
	C903.379883,727.331299 885.349243,713.939331 861.843384,717.266418 
	C854.035767,718.371521 846.673340,722.651978 839.124695,725.526184 
	C837.992188,725.957397 836.954956,726.638611 835.298950,727.504761 
	C835.298950,725.001221 835.310486,723.211060 835.297058,721.421021 
	C835.219543,711.091003 835.358093,700.752747 834.976807,690.433777 
	C834.722351,683.547546 832.377014,677.327637 826.279724,673.291748 
	C808.610962,661.596375 785.827271,672.189209 783.704407,693.064941 
	C783.468933,695.380371 783.356445,697.720032 783.369934,700.047363 
	C783.536255,728.876587 783.721680,757.705627 783.933533,786.534485 
	C784.076233,805.957336 793.437988,819.313416 811.013306,827.027771 
	C824.146606,832.792297 838.086121,833.833435 852.157166,832.913391 
	C881.400879,831.001343 904.629028,814.984863 910.947388,787.335327 
M1675.025879,782.501770 
	C1675.263428,776.194641 1674.946655,769.802795 1675.894653,763.604309 
	C1676.843506,757.399231 1681.820679,754.129639 1687.751099,754.471375 
	C1693.463013,754.800537 1696.434570,757.907104 1697.285034,764.618591 
	C1697.556396,766.759827 1697.644287,768.935181 1697.661133,771.096130 
	C1697.769043,784.924255 1697.756348,798.753723 1697.938232,812.580688 
	C1698.070190,822.616028 1702.432007,828.309204 1712.046509,830.321289 
	C1716.547607,831.263306 1721.315796,831.497925 1725.922241,831.261597 
	C1739.287842,830.575989 1745.217163,825.821655 1746.987183,812.546631 
	C1748.653687,800.046509 1749.272705,787.347229 1749.441528,774.723389 
	C1749.614990,761.758911 1749.081177,748.716675 1744.330566,736.342712 
	C1739.394287,723.485229 1731.342285,718.006653 1717.700073,717.921143 
	C1702.839111,717.828003 1688.706787,720.776001 1674.988892,728.454651 
	C1674.988892,715.639160 1675.140015,703.549438 1674.952026,691.465027 
	C1674.696411,675.030151 1667.728394,668.208374 1651.311401,667.919189 
	C1649.813232,667.892761 1648.311157,667.892151 1646.815308,667.968689 
	C1634.185913,668.614685 1625.376587,676.916565 1624.028931,689.530945 
	C1623.728760,692.341125 1623.623047,695.185303 1623.632324,698.013184 
	C1623.741333,731.501526 1623.851807,764.989990 1624.072510,798.477661 
	C1624.100952,802.789612 1624.465454,807.145020 1625.169800,811.398254 
	C1627.283203,824.160828 1634.551025,830.592102 1647.042969,831.117798 
	C1661.760742,831.737183 1670.404907,826.439636 1672.869263,813.273743 
	C1674.688232,803.555359 1674.384155,793.439636 1675.025879,782.501770 
M491.856781,755.092896 
	C486.389496,757.455505 484.131073,762.112122 482.975525,767.545044 
	C477.536499,793.118164 490.047516,816.845032 514.619690,826.936584 
	C533.089233,834.521851 552.312866,834.727478 571.574707,831.103699 
	C598.533386,826.031982 610.568420,812.866272 611.336731,785.580322 
	C612.199097,754.955505 611.582092,724.288696 611.564026,693.640198 
	C611.562805,691.652100 611.301086,689.642578 610.950745,687.680420 
	C609.921509,681.916260 607.725525,676.679443 602.390198,673.679504 
	C591.342590,667.467773 579.637756,666.891907 568.396423,672.354858 
	C558.309204,677.257019 557.325867,687.349670 557.024597,697.261536 
	C556.968933,699.092224 557.010193,700.926025 557.010132,702.758362 
	C557.009399,729.244324 557.020874,755.730225 556.991028,782.216187 
	C556.988037,784.872620 557.007446,787.576782 556.548279,790.176086 
	C555.138550,798.156860 548.085083,801.612549 540.777222,797.980408 
	C535.696106,795.454956 532.988464,791.210022 533.025635,785.577698 
	C533.054077,781.267395 533.733582,776.965210 534.004822,772.651917 
	C534.645630,762.459167 530.579895,756.490845 520.648865,754.081726 
	C511.305115,751.815002 501.864502,751.718323 491.856781,755.092896 
M1262.534790,832.961243 
	C1274.924072,832.768982 1286.517822,829.758972 1297.214722,822.862610 
	C1302.100830,829.921204 1309.354858,831.198181 1317.023804,831.491333 
	C1337.328857,832.267517 1344.793213,825.194336 1344.850586,804.947693 
	C1344.906738,785.131042 1344.903198,765.313965 1344.823120,745.497498 
	C1344.809692,742.184937 1344.473511,738.841675 1343.937256,735.569824 
	C1342.702026,728.032166 1338.536255,722.485474 1331.124634,720.521179 
	C1325.911255,719.139526 1320.327271,718.581421 1314.919800,718.641357 
	C1306.875732,718.730591 1301.057495,723.345642 1297.029907,729.938721 
	C1294.073608,727.928223 1291.687622,726.097168 1289.113281,724.587158 
	C1264.017944,709.867859 1232.953003,714.150757 1221.746704,749.872375 
	C1216.590942,766.307251 1216.605957,783.060059 1221.231812,799.606628 
	C1226.969727,820.130493 1242.085815,832.365662 1262.534790,832.961243 
M722.128601,829.739502 
	C723.848633,829.119141 725.602234,828.578064 727.283752,827.866516 
	C747.766846,819.199524 760.803162,804.583435 762.708435,781.826599 
	C764.613220,759.077209 757.670593,739.821777 737.552856,727.343384 
	C717.165955,714.698242 694.930969,713.982605 672.497742,720.351013 
	C646.666443,727.684082 631.984802,748.009094 631.611877,775.304199 
	C631.262756,800.867432 646.285522,821.293396 671.608398,829.310425 
	C688.080933,834.525513 704.708130,834.390320 722.128601,829.739502 
M1483.693481,753.254211 
	C1476.584839,776.035339 1478.584229,797.192932 1496.179810,814.718872 
	C1516.169189,834.629089 1554.571777,839.299988 1578.960815,825.123291 
	C1589.213867,819.163391 1597.933472,811.350281 1601.737061,799.664368 
	C1602.613403,796.971802 1602.012573,792.792114 1600.381958,790.528076 
	C1597.997314,787.216858 1593.762207,787.173462 1589.885864,788.862732 
	C1588.362915,789.526306 1586.840088,790.194275 1585.346680,790.920593 
	C1575.847168,795.540894 1565.723145,797.135437 1555.287476,796.869995 
	C1542.392456,796.541992 1532.865967,789.196655 1530.629272,777.011841 
	C1528.498779,765.405457 1530.269775,754.059021 1536.381348,743.810852 
	C1537.880615,741.296692 1540.623169,738.967712 1543.329468,737.851257 
	C1548.189941,735.846069 1551.527954,738.710449 1551.155518,743.908386 
	C1551.037720,745.552734 1550.514771,747.163635 1550.296021,748.805664 
	C1549.508911,754.712585 1548.179443,760.625000 1548.166504,766.537720 
	C1548.150146,773.986084 1551.864746,777.782715 1559.144531,779.152039 
	C1567.717285,780.764404 1576.078979,779.789185 1584.040283,776.256409 
	C1596.163452,770.877014 1602.942749,757.192627 1600.469849,744.142151 
	C1598.107788,731.676086 1589.825562,724.695190 1578.584595,721.237549 
	C1557.158569,714.647095 1535.609741,714.570618 1514.479248,722.703918 
	C1500.134033,728.225525 1489.870239,738.222595 1483.693481,753.254211 
M1406.710693,829.970337 
	C1411.003784,830.459656 1415.285400,831.200867 1419.591919,831.396484 
	C1443.759521,832.494629 1464.129395,812.512451 1463.694824,788.259094 
	C1463.608765,783.459167 1461.096802,780.416077 1456.598877,779.168396 
	C1452.139526,777.931213 1448.368896,778.811340 1446.129150,783.410278 
	C1445.259766,785.195435 1444.520874,787.406921 1443.037231,788.443359 
	C1440.919800,789.922607 1437.976807,791.546021 1435.755127,791.131775 
	C1433.971191,790.799072 1431.536255,787.577087 1431.456177,785.555298 
	C1431.030273,774.812439 1431.255737,764.043823 1431.255737,753.428528 
	C1437.315552,752.915344 1443.127808,752.668701 1448.860107,751.857300 
	C1453.187378,751.244629 1457.291260,749.805542 1459.182739,745.111328 
	C1462.975220,735.699097 1457.901123,726.327881 1447.942139,724.967834 
	C1442.406128,724.211792 1436.788696,724.052185 1430.930786,723.602478 
	C1430.930786,721.809082 1430.970581,720.166748 1430.924194,718.526733 
	C1430.646484,708.709656 1430.702271,698.865784 1429.943726,689.085327 
	C1429.359619,681.552795 1425.930298,678.913086 1418.462646,678.836487 
	C1406.333374,678.712036 1395.652222,682.886414 1386.091553,690.107239 
	C1381.279541,693.741516 1378.855225,698.559875 1379.071167,704.771179 
	C1379.294556,711.193115 1379.120972,717.628845 1379.120972,723.881531 
	C1366.557373,727.147400 1363.110474,730.004944 1363.059937,737.810791 
	C1363.040283,740.837341 1363.245850,745.036560 1365.118408,746.657898 
	C1368.896240,749.928894 1373.885742,751.800293 1379.990967,755.130127 
	C1379.990967,767.832947 1379.153564,782.198486 1380.211914,796.422913 
	C1381.418945,812.643616 1388.479370,825.507141 1406.710693,829.970337 
M276.499969,744.162048 
	C270.335114,744.162292 264.148041,743.869324 258.018402,744.334167 
	C256.079315,744.481262 252.952133,746.437683 252.710678,747.941956 
	C252.168213,751.321655 255.122665,752.015747 258.093842,751.999146 
	C267.590942,751.946045 277.088501,751.979858 286.585907,751.980103 
	C289.485748,751.980164 292.385590,751.980103 295.057495,751.980103 
	C295.057495,759.239929 294.716187,765.753906 295.130920,772.219360 
	C295.913208,784.414917 298.712952,796.034485 308.129303,804.732178 
	C310.076019,806.530334 313.229767,807.773315 315.894043,807.903442 
	C324.155029,808.306885 332.448273,808.050964 341.095612,808.050964 
	C341.095612,813.344482 341.095642,818.141479 341.095642,822.938538 
	C341.095642,827.877686 341.095612,832.816833 341.095612,838.167969 
	C332.951508,838.167969 325.361877,838.167969 317.905640,838.167969 
	C316.574402,842.883789 316.574402,842.883789 311.754669,845.792297 
	C307.076965,848.615051 305.428864,854.519836 307.986786,859.290894 
	C310.655609,864.268799 316.742798,866.196228 321.715179,863.637695 
	C326.617859,861.114990 328.595978,854.920898 326.074829,849.912354 
	C325.456696,848.684448 324.753876,847.499084 324.010712,846.150269 
	C328.889832,846.150269 333.295319,846.150269 337.845612,846.150269 
	C333.634521,853.029541 333.702393,858.265442 337.891876,862.046631 
	C341.711670,865.494202 347.392578,865.883972 351.078644,862.440857 
	C352.797211,860.835571 354.666290,858.341125 354.699371,856.222046 
	C354.752075,852.845764 353.327148,849.446350 352.536530,846.096680 
	C356.400238,846.096680 360.966248,846.096680 365.949829,846.096680 
	C364.960144,847.616516 364.048157,848.757568 363.414215,850.036438 
	C360.895142,855.118042 362.952972,861.133850 367.994293,863.657959 
	C372.904083,866.116272 378.657410,864.380859 381.403717,859.613342 
	C384.266663,854.643372 382.568207,848.876343 377.798462,845.684998 
	C375.389679,844.073364 373.531433,841.638916 371.424286,839.576477 
	C371.734406,839.055725 372.044525,838.534973 372.354675,838.014221 
	C364.625092,838.014221 356.895538,838.014221 349.252960,838.014221 
	C349.252960,827.726257 349.252960,818.001587 349.252960,808.051025 
	C355.570801,808.051025 361.652618,807.349731 367.506165,808.207153 
	C377.558411,809.679504 383.203186,804.279907 387.398132,796.633850 
	C389.842529,792.178650 392.147766,787.265137 392.856506,782.320007 
	C394.277130,772.408020 394.558990,762.332886 395.336884,751.980103 
	C396.415741,751.980103 398.233337,751.980164 400.050934,751.980103 
	C412.547516,751.979492 425.044098,751.961975 437.540619,751.990967 
	C440.419861,751.997681 442.982452,750.911926 442.456329,747.924927 
	C442.193512,746.432922 439.404053,745.208130 437.556946,744.248291 
	C436.638153,743.770813 435.267303,744.162292 434.100952,744.162231 
	C421.604370,744.161987 409.107605,744.122253 396.611420,744.192200 
	C393.792145,744.208008 391.738739,743.835327 392.611145,740.031921 
	C401.165802,740.031921 409.656067,740.137146 418.142181,739.994324 
	C423.658356,739.901550 427.051758,736.664795 427.061798,731.956787 
	C427.071869,727.229980 423.734344,724.079102 418.171906,723.921448 
	C412.511200,723.760986 406.830139,723.631958 401.182617,723.940369 
	C397.610352,724.135437 395.518982,723.059143 393.596832,719.930542 
	C387.153198,709.442688 380.400146,699.142212 373.643036,688.850464 
	C368.410889,680.881409 361.418610,678.789429 352.079437,680.823669 
	C347.539551,681.812561 342.434784,681.768372 337.881561,680.800354 
	C329.269379,678.969543 322.493225,680.947449 317.473358,688.199951 
	C315.391266,691.208130 313.622162,694.440308 311.436157,697.365417 
	C310.577240,698.514771 309.011719,699.739502 307.691956,699.830811 
	C303.267090,700.136841 298.807953,699.947021 294.302612,699.947021 
	C294.302612,688.375549 294.302612,677.313721 294.302612,665.877686 
	C303.332764,665.877686 312.084656,665.877686 321.085114,665.877686 
	C320.436310,663.091736 319.887268,660.734131 319.356781,658.456177 
	C308.250610,658.456177 297.498566,658.456177 286.650391,658.456177 
	C286.650391,674.950439 286.650391,691.150574 286.650391,707.772705 
	C292.618958,707.772705 298.205261,707.772705 304.732697,707.772705 
	C302.899597,710.663696 301.293030,712.737549 300.175690,715.048035 
	C297.111633,721.383789 293.003448,725.028137 285.169189,724.026794 
	C279.856354,723.347778 276.207642,727.396973 276.273621,731.977600 
	C276.338715,736.498169 279.981262,739.786316 285.390625,739.973999 
	C289.325378,740.110535 293.268646,740.000732 297.208130,740.000732 
	C297.422333,740.585754 297.636566,741.170837 297.850769,741.755859 
	C296.398956,742.557739 294.979614,743.971985 293.489441,744.051086 
	C288.172516,744.333191 282.831573,744.161804 276.499969,744.162048 
M365.250397,654.920532 
	C364.391693,646.035767 359.588043,640.033752 351.295227,637.258362 
	C343.126099,634.524414 335.730042,636.647217 329.958832,643.004211 
	C324.150879,649.401672 323.185944,656.977478 326.457458,664.859009 
	C329.996582,673.385132 339.632568,678.396851 348.479218,676.729858 
	C358.719574,674.800415 364.889648,667.095459 365.250397,654.920532 
z"/>
<path fill="#FFFFFF" opacity="1.000000" stroke="none" 
	d="
M769.000366,910.568542 
	C965.469666,910.568604 1161.438965,910.584351 1357.408203,910.470276 
	C1361.941162,910.467651 1364.407593,911.776001 1366.721924,915.798096 
	C1423.788818,1014.977112 1481.016357,1114.063843 1538.214600,1213.167236 
	C1539.022827,1214.567627 1539.822388,1215.973022 1540.855957,1217.777344 
	C1180.767456,1217.777344 821.279175,1217.777344 461.294403,1217.777344 
	C462.128326,1216.189209 462.754028,1214.888794 463.473541,1213.642578 
	C520.936584,1114.117188 578.425110,1014.606445 635.797363,915.028625 
	C637.699158,911.727722 639.630920,910.452881 643.521301,910.468018 
	C685.180481,910.629761 726.840576,910.568542 769.000366,910.568542 
z"/>
<path fill="#FEFEFE" opacity="1.000000" stroke="none" 
	d="
M1064.078369,391.890869 
	C1102.236938,458.000244 1140.236572,523.779724 1178.570435,590.137939 
	C1060.058594,590.137939 942.145325,590.137939 823.460693,590.137939 
	C882.653564,487.610931 941.603455,385.504730 1000.995056,282.633514 
	C1022.246643,319.421844 1043.083008,355.491394 1064.078369,391.890869 
z"/>
<path fill="#FEFEFE" opacity="1.000000" stroke="none" 
	d="
M1195.209229,773.000122 
	C1195.207520,784.830078 1195.296021,796.160889 1195.180908,807.489685 
	C1195.042358,821.123840 1188.316650,828.805603 1174.818481,830.847595 
	C1171.862793,831.294739 1168.843628,831.514893 1165.853882,831.513306 
	C1150.002808,831.504944 1141.332031,822.888855 1141.168335,806.618774 
	C1140.984009,788.292786 1141.121338,769.963562 1141.118774,751.635742 
	C1141.118530,750.061401 1141.118652,748.487061 1140.207642,746.762390 
	C1135.133545,757.133118 1130.074097,767.510986 1124.981445,777.872559 
	C1119.997192,788.013550 1115.150146,798.227539 1109.911011,808.235718 
	C1106.797974,814.182739 1102.332520,818.737427 1094.960938,819.254150 
	C1088.900269,819.678955 1083.490112,818.137573 1079.858521,813.240723 
	C1074.718994,806.310486 1069.685425,799.230469 1065.379639,791.768372 
	C1056.837280,776.964172 1048.823364,761.854919 1039.329224,746.966919 
	C1039.329224,748.431396 1039.329224,749.895874 1039.329224,751.360352 
	C1039.329224,769.854797 1039.329224,788.349243 1039.329102,806.843689 
	C1039.329102,808.176636 1039.288696,809.510742 1039.331787,810.842285 
	C1039.984985,831.021912 1026.500610,833.366028 1012.586487,830.498291 
	C1006.609436,829.266479 1003.050476,825.245056 1002.025269,819.237000 
	C1001.467834,815.970154 1001.033813,812.634399 1001.027283,809.328857 
	C1000.958313,774.506165 1000.981140,739.683228 1001.001770,704.860413 
	C1001.003113,702.531433 1001.017883,700.179626 1001.320618,697.877136 
	C1004.507446,673.641113 1028.020508,660.933777 1050.511719,671.164246 
	C1057.692139,674.430298 1061.657227,680.438965 1064.765869,687.192444 
	C1074.214478,707.719788 1083.572144,728.288940 1092.969971,748.839661 
	C1093.656982,750.341736 1094.382935,751.825928 1095.346191,753.856995 
	C1096.377441,751.933289 1097.218628,750.467468 1097.965576,748.955078 
	C1107.971924,728.691589 1117.953003,708.415466 1127.965820,688.155090 
	C1137.543091,668.775879 1165.227905,662.007935 1182.808716,674.858398 
	C1191.251831,681.029785 1194.800659,689.988953 1194.943604,700.026611 
	C1195.287842,724.180786 1195.151733,748.341858 1195.209229,773.000122 
z"/>
<path fill="#FEFEFE" opacity="1.000000" stroke="none" 
	d="
M910.876099,787.749695 
	C904.629028,814.984863 881.400879,831.001343 852.157166,832.913391 
	C838.086121,833.833435 824.146606,832.792297 811.013306,827.027771 
	C793.437988,819.313416 784.076233,805.957336 783.933533,786.534485 
	C783.721680,757.705627 783.536255,728.876587 783.369934,700.047363 
	C783.356445,697.720032 783.468933,695.380371 783.704407,693.064941 
	C785.827271,672.189209 808.610962,661.596375 826.279724,673.291748 
	C832.377014,677.327637 834.722351,683.547546 834.976807,690.433777 
	C835.358093,700.752747 835.219543,711.091003 835.297058,721.421021 
	C835.310486,723.211060 835.298950,725.001221 835.298950,727.504761 
	C836.954956,726.638611 837.992188,725.957397 839.124695,725.526184 
	C846.673340,722.651978 854.035767,718.371521 861.843384,717.266418 
	C885.349243,713.939331 903.379883,727.331299 909.907104,751.690979 
	C913.062744,763.467590 913.166931,775.378845 910.876099,787.749695 
M857.265503,755.438354 
	C857.014221,754.824219 856.809143,754.186157 856.504578,753.599670 
	C853.158203,747.158508 849.540649,744.928650 844.513611,746.184692 
	C839.161316,747.521973 835.672180,752.564026 835.667175,759.010803 
	C835.658691,769.997131 835.579102,780.984741 835.742554,791.968628 
	C835.772644,793.990662 836.316711,796.355591 837.469299,797.951355 
	C843.337830,806.076599 853.368713,804.690063 857.383240,795.159851 
	C862.826904,782.236938 861.687988,769.168762 857.265503,755.438354 
z"/>
<path fill="#FEFEFE" opacity="1.000000" stroke="none" 
	d="
M1675.025879,783.001343 
	C1674.384155,793.439636 1674.688232,803.555359 1672.869263,813.273743 
	C1670.404907,826.439636 1661.760742,831.737183 1647.042969,831.117798 
	C1634.551025,830.592102 1627.283203,824.160828 1625.169800,811.398254 
	C1624.465454,807.145020 1624.100952,802.789612 1624.072510,798.477661 
	C1623.851807,764.989990 1623.741333,731.501526 1623.632324,698.013184 
	C1623.623047,695.185303 1623.728760,692.341125 1624.028931,689.530945 
	C1625.376587,676.916565 1634.185913,668.614685 1646.815308,667.968689 
	C1648.311157,667.892151 1649.813232,667.892761 1651.311401,667.919189 
	C1667.728394,668.208374 1674.696411,675.030151 1674.952026,691.465027 
	C1675.140015,703.549438 1674.988892,715.639160 1674.988892,728.454651 
	C1688.706787,720.776001 1702.839111,717.828003 1717.700073,717.921143 
	C1731.342285,718.006653 1739.394287,723.485229 1744.330566,736.342712 
	C1749.081177,748.716675 1749.614990,761.758911 1749.441528,774.723389 
	C1749.272705,787.347229 1748.653687,800.046509 1746.987183,812.546631 
	C1745.217163,825.821655 1739.287842,830.575989 1725.922241,831.261597 
	C1721.315796,831.497925 1716.547607,831.263306 1712.046509,830.321289 
	C1702.432007,828.309204 1698.070190,822.616028 1697.938232,812.580688 
	C1697.756348,798.753723 1697.769043,784.924255 1697.661133,771.096130 
	C1697.644287,768.935181 1697.556396,766.759827 1697.285034,764.618591 
	C1696.434570,757.907104 1693.463013,754.800537 1687.751099,754.471375 
	C1681.820679,754.129639 1676.843506,757.399231 1675.894653,763.604309 
	C1674.946655,769.802795 1675.263428,776.194641 1675.025879,783.001343 
z"/>
<path fill="#FDFEFE" opacity="1.000000" stroke="none" 
	d="
M492.224976,754.975586 
	C501.864502,751.718323 511.305115,751.815002 520.648865,754.081726 
	C530.579895,756.490845 534.645630,762.459167 534.004822,772.651917 
	C533.733582,776.965210 533.054077,781.267395 533.025635,785.577698 
	C532.988464,791.210022 535.696106,795.454956 540.777222,797.980408 
	C548.085083,801.612549 555.138550,798.156860 556.548279,790.176086 
	C557.007446,787.576782 556.988037,784.872620 556.991028,782.216187 
	C557.020874,755.730225 557.009399,729.244324 557.010132,702.758362 
	C557.010193,700.926025 556.968933,699.092224 557.024597,697.261536 
	C557.325867,687.349670 558.309204,677.257019 568.396423,672.354858 
	C579.637756,666.891907 591.342590,667.467773 602.390198,673.679504 
	C607.725525,676.679443 609.921509,681.916260 610.950745,687.680420 
	C611.301086,689.642578 611.562805,691.652100 611.564026,693.640198 
	C611.582092,724.288696 612.199097,754.955505 611.336731,785.580322 
	C610.568420,812.866272 598.533386,826.031982 571.574707,831.103699 
	C552.312866,834.727478 533.089233,834.521851 514.619690,826.936584 
	C490.047516,816.845032 477.536499,793.118164 482.975525,767.545044 
	C484.131073,762.112122 486.389496,757.455505 492.224976,754.975586 
z"/>
<path fill="#FEFEFE" opacity="1.000000" stroke="none" 
	d="
M1262.064453,832.962524 
	C1242.085815,832.365662 1226.969727,820.130493 1221.231812,799.606628 
	C1216.605957,783.060059 1216.590942,766.307251 1221.746704,749.872375 
	C1232.953003,714.150757 1264.017944,709.867859 1289.113281,724.587158 
	C1291.687622,726.097168 1294.073608,727.928223 1297.029907,729.938721 
	C1301.057495,723.345642 1306.875732,718.730591 1314.919800,718.641357 
	C1320.327271,718.581421 1325.911255,719.139526 1331.124634,720.521179 
	C1338.536255,722.485474 1342.702026,728.032166 1343.937256,735.569824 
	C1344.473511,738.841675 1344.809692,742.184937 1344.823120,745.497498 
	C1344.903198,765.313965 1344.906738,785.131042 1344.850586,804.947693 
	C1344.793213,825.194336 1337.328857,832.267517 1317.023804,831.491333 
	C1309.354858,831.198181 1302.100830,829.921204 1297.214722,822.862610 
	C1286.517822,829.758972 1274.924072,832.768982 1262.064453,832.962524 
M1271.138306,761.854370 
	C1270.757812,768.810852 1269.538086,775.855286 1270.255127,782.696777 
	C1270.858643,788.455994 1273.179077,794.239197 1275.745605,799.523132 
	C1277.737427,803.623718 1282.039795,804.807312 1286.557861,803.162476 
	C1290.877563,801.589722 1293.993896,799.173035 1293.916504,793.825317 
	C1293.735962,781.329468 1293.878052,768.829163 1293.848633,756.330750 
	C1293.837646,751.639221 1290.901855,747.955261 1286.215820,746.533875 
	C1281.700073,745.164062 1278.183594,746.897339 1275.956299,750.624695 
	C1274.021240,753.862915 1272.849731,757.557373 1271.138306,761.854370 
z"/>
<path fill="#FEFEFE" opacity="1.000000" stroke="none" 
	d="
M721.737183,829.835754 
	C704.708130,834.390320 688.080933,834.525513 671.608398,829.310425 
	C646.285522,821.293396 631.262756,800.867432 631.611877,775.304199 
	C631.984802,748.009094 646.666443,727.684082 672.497742,720.351013 
	C694.930969,713.982605 717.165955,714.698242 737.552856,727.343384 
	C757.670593,739.821777 764.613220,759.077209 762.708435,781.826599 
	C760.803162,804.583435 747.766846,819.199524 727.283752,827.866516 
	C725.602234,828.578064 723.848633,829.119141 721.737183,829.835754 
M705.801270,799.113831 
	C709.657288,788.959106 710.835388,778.403687 709.360291,767.741760 
	C708.483826,761.406921 707.086365,754.927734 704.575378,749.093445 
	C701.780579,742.599731 695.433044,742.559082 691.172607,748.294250 
	C690.193054,749.612793 689.302002,751.077393 688.735596,752.609863 
	C683.029297,768.050293 683.064514,783.577393 689.219543,798.779602 
	C690.380798,801.647949 693.983521,804.479919 697.037415,805.390259 
	C700.909607,806.544495 703.674377,803.283264 705.801270,799.113831 
z"/>
<path fill="#FDFEFE" opacity="1.000000" stroke="none" 
	d="
M1483.826172,752.889648 
	C1489.870239,738.222595 1500.134033,728.225525 1514.479248,722.703918 
	C1535.609741,714.570618 1557.158569,714.647095 1578.584595,721.237549 
	C1589.825562,724.695190 1598.107788,731.676086 1600.469849,744.142151 
	C1602.942749,757.192627 1596.163452,770.877014 1584.040283,776.256409 
	C1576.078979,779.789185 1567.717285,780.764404 1559.144531,779.152039 
	C1551.864746,777.782715 1548.150146,773.986084 1548.166504,766.537720 
	C1548.179443,760.625000 1549.508911,754.712585 1550.296021,748.805664 
	C1550.514771,747.163635 1551.037720,745.552734 1551.155518,743.908386 
	C1551.527954,738.710449 1548.189941,735.846069 1543.329468,737.851257 
	C1540.623169,738.967712 1537.880615,741.296692 1536.381348,743.810852 
	C1530.269775,754.059021 1528.498779,765.405457 1530.629272,777.011841 
	C1532.865967,789.196655 1542.392456,796.541992 1555.287476,796.869995 
	C1565.723145,797.135437 1575.847168,795.540894 1585.346680,790.920593 
	C1586.840088,790.194275 1588.362915,789.526306 1589.885864,788.862732 
	C1593.762207,787.173462 1597.997314,787.216858 1600.381958,790.528076 
	C1602.012573,792.792114 1602.613403,796.971802 1601.737061,799.664368 
	C1597.933472,811.350281 1589.213867,819.163391 1578.960815,825.123291 
	C1554.571777,839.299988 1516.169189,834.629089 1496.179810,814.718872 
	C1478.584229,797.192932 1476.584839,776.035339 1483.826172,752.889648 
z"/>
<path fill="#FDFEFE" opacity="1.000000" stroke="none" 
	d="
M1406.303101,829.894592 
	C1388.479370,825.507141 1381.418945,812.643616 1380.211914,796.422913 
	C1379.153564,782.198486 1379.990967,767.832947 1379.990967,755.130127 
	C1373.885742,751.800293 1368.896240,749.928894 1365.118408,746.657898 
	C1363.245850,745.036560 1363.040283,740.837341 1363.059937,737.810791 
	C1363.110474,730.004944 1366.557373,727.147400 1379.120972,723.881531 
	C1379.120972,717.628845 1379.294556,711.193115 1379.071167,704.771179 
	C1378.855225,698.559875 1381.279541,693.741516 1386.091553,690.107239 
	C1395.652222,682.886414 1406.333374,678.712036 1418.462646,678.836487 
	C1425.930298,678.913086 1429.359619,681.552795 1429.943726,689.085327 
	C1430.702271,698.865784 1430.646484,708.709656 1430.924194,718.526733 
	C1430.970581,720.166748 1430.930786,721.809082 1430.930786,723.602478 
	C1436.788696,724.052185 1442.406128,724.211792 1447.942139,724.967834 
	C1457.901123,726.327881 1462.975220,735.699097 1459.182739,745.111328 
	C1457.291260,749.805542 1453.187378,751.244629 1448.860107,751.857300 
	C1443.127808,752.668701 1437.315552,752.915344 1431.255737,753.428528 
	C1431.255737,764.043823 1431.030273,774.812439 1431.456177,785.555298 
	C1431.536255,787.577087 1433.971191,790.799072 1435.755127,791.131775 
	C1437.976807,791.546021 1440.919800,789.922607 1443.037231,788.443359 
	C1444.520874,787.406921 1445.259766,785.195435 1446.129150,783.410278 
	C1448.368896,778.811340 1452.139526,777.931213 1456.598877,779.168396 
	C1461.096802,780.416077 1463.608765,783.459167 1463.694824,788.259094 
	C1464.129395,812.512451 1443.759521,832.494629 1419.591919,831.396484 
	C1415.285400,831.200867 1411.003784,830.459656 1406.303101,829.894592 
z"/>
<path fill="#F7F8F9" opacity="1.000000" stroke="none" 
	d="
M276.999817,744.162048 
	C282.831573,744.161804 288.172516,744.333191 293.489441,744.051086 
	C294.979614,743.971985 296.398956,742.557739 297.850769,741.755859 
	C297.636566,741.170837 297.422333,740.585754 297.208130,740.000732 
	C293.268646,740.000732 289.325378,740.110535 285.390625,739.973999 
	C279.981262,739.786316 276.338715,736.498169 276.273621,731.977600 
	C276.207642,727.396973 279.856354,723.347778 285.169189,724.026794 
	C293.003448,725.028137 297.111633,721.383789 300.175690,715.048035 
	C301.293030,712.737549 302.899597,710.663696 304.732697,707.772705 
	C298.205261,707.772705 292.618958,707.772705 286.650391,707.772705 
	C286.650391,691.150574 286.650391,674.950439 286.650391,658.456177 
	C297.498566,658.456177 308.250610,658.456177 319.356781,658.456177 
	C319.887268,660.734131 320.436310,663.091736 321.085114,665.877686 
	C312.084656,665.877686 303.332764,665.877686 294.302612,665.877686 
	C294.302612,677.313721 294.302612,688.375549 294.302612,699.947021 
	C298.807953,699.947021 303.267090,700.136841 307.691956,699.830811 
	C309.011719,699.739502 310.577240,698.514771 311.436157,697.365417 
	C313.622162,694.440308 315.391266,691.208130 317.473358,688.199951 
	C322.493225,680.947449 329.269379,678.969543 337.881561,680.800354 
	C342.434784,681.768372 347.539551,681.812561 352.079437,680.823669 
	C361.418610,678.789429 368.410889,680.881409 373.643036,688.850464 
	C380.400146,699.142212 387.153198,709.442688 393.596832,719.930542 
	C395.518982,723.059143 397.610352,724.135437 401.182617,723.940369 
	C406.830139,723.631958 412.511200,723.760986 418.171906,723.921448 
	C423.734344,724.079102 427.071869,727.229980 427.061798,731.956787 
	C427.051758,736.664795 423.658356,739.901550 418.142181,739.994324 
	C409.656067,740.137146 401.165802,740.031921 392.611145,740.031921 
	C391.738739,743.835327 393.792145,744.208008 396.611420,744.192200 
	C409.107605,744.122253 421.604370,744.161987 434.100952,744.162231 
	C435.267303,744.162292 436.638153,743.770813 437.556946,744.248291 
	C439.404053,745.208130 442.193512,746.432922 442.456329,747.924927 
	C442.982452,750.911926 440.419861,751.997681 437.540619,751.990967 
	C425.044098,751.961975 412.547516,751.979492 400.050934,751.980103 
	C398.233337,751.980164 396.415741,751.980103 395.336884,751.980103 
	C394.558990,762.332886 394.277130,772.408020 392.856506,782.320007 
	C392.147766,787.265137 389.842529,792.178650 387.398132,796.633850 
	C383.203186,804.279907 377.558411,809.679504 367.506165,808.207153 
	C361.652618,807.349731 355.570801,808.051025 349.252960,808.051025 
	C349.252960,818.001587 349.252960,827.726257 349.252960,838.014221 
	C356.895538,838.014221 364.625092,838.014221 372.354675,838.014221 
	C372.044525,838.534973 371.734406,839.055725 371.424286,839.576477 
	C373.531433,841.638916 375.389679,844.073364 377.798462,845.684998 
	C382.568207,848.876343 384.266663,854.643372 381.403717,859.613342 
	C378.657410,864.380859 372.904083,866.116272 367.994293,863.657959 
	C362.952972,861.133850 360.895142,855.118042 363.414215,850.036438 
	C364.048157,848.757568 364.960144,847.616516 365.949829,846.096680 
	C360.966248,846.096680 356.400238,846.096680 352.536530,846.096680 
	C353.327148,849.446350 354.752075,852.845764 354.699371,856.222046 
	C354.666290,858.341125 352.797211,860.835571 351.078644,862.440857 
	C347.392578,865.883972 341.711670,865.494202 337.891876,862.046631 
	C333.702393,858.265442 333.634521,853.029541 337.845612,846.150269 
	C333.295319,846.150269 328.889832,846.150269 324.010712,846.150269 
	C324.753876,847.499084 325.456696,848.684448 326.074829,849.912354 
	C328.595978,854.920898 326.617859,861.114990 321.715179,863.637695 
	C316.742798,866.196228 310.655609,864.268799 307.986786,859.290894 
	C305.428864,854.519836 307.076965,848.615051 311.754669,845.792297 
	C316.574402,842.883789 316.574402,842.883789 317.905640,838.167969 
	C325.361877,838.167969 332.951508,838.167969 341.095612,838.167969 
	C341.095612,832.816833 341.095642,827.877686 341.095642,822.938538 
	C341.095642,818.141479 341.095612,813.344482 341.095612,808.050964 
	C332.448273,808.050964 324.155029,808.306885 315.894043,807.903442 
	C313.229767,807.773315 310.076019,806.530334 308.129303,804.732178 
	C298.712952,796.034485 295.913208,784.414917 295.130920,772.219360 
	C294.716187,765.753906 295.057495,759.239929 295.057495,751.980103 
	C292.385590,751.980103 289.485748,751.980164 286.585907,751.980103 
	C277.088501,751.979858 267.590942,751.946045 258.093842,751.999146 
	C255.122665,752.015747 252.168213,751.321655 252.710678,747.941956 
	C252.952133,746.437683 256.079315,744.481262 258.018402,744.334167 
	C264.148041,743.869324 270.335114,744.162292 276.999817,744.162048 
M386.968079,757.821777 
	C384.942169,737.833374 379.486908,718.971558 367.842133,702.358582 
	C353.719849,682.211060 335.501831,682.163757 321.703369,702.572754 
	C306.743195,724.700012 300.582825,749.353516 303.187439,775.993652 
	C303.936584,783.655884 305.912994,791.193604 311.371582,797.002136 
	C313.055481,798.793945 316.077393,800.226685 318.513397,800.268311 
	C334.993683,800.550781 351.488983,800.126038 367.962067,800.571594 
	C373.799011,800.729553 377.591492,798.671204 380.142761,793.929443 
	C382.017090,790.445801 384.214661,786.816772 384.801300,783.025635 
	C386.040649,775.016479 386.319031,766.858704 386.968079,757.821777 
z"/>
<path fill="#FCFCFD" opacity="1.000000" stroke="none" 
	d="
M365.278992,655.317871 
	C364.889648,667.095459 358.719574,674.800415 348.479218,676.729858 
	C339.632568,678.396851 329.996582,673.385132 326.457458,664.859009 
	C323.185944,656.977478 324.150879,649.401672 329.958832,643.004211 
	C335.730042,636.647217 343.126099,634.524414 351.295227,637.258362 
	C359.588043,640.033752 364.391693,646.035767 365.278992,655.317871 
z"/>
<path fill="#162A51" opacity="1.000000" stroke="none" 
	d="
M857.436707,755.786926 
	C861.687988,769.168762 862.826904,782.236938 857.383240,795.159851 
	C853.368713,804.690063 843.337830,806.076599 837.469299,797.951355 
	C836.316711,796.355591 835.772644,793.990662 835.742554,791.968628 
	C835.579102,780.984741 835.658691,769.997131 835.667175,759.010803 
	C835.672180,752.564026 839.161316,747.521973 844.513611,746.184692 
	C849.540649,744.928650 853.158203,747.158508 856.504578,753.599670 
	C856.809143,754.186157 857.014221,754.824219 857.436707,755.786926 
z"/>
<path fill="#182C53" opacity="1.000000" stroke="none" 
	d="
M1271.239502,761.452271 
	C1272.849731,757.557373 1274.021240,753.862915 1275.956299,750.624695 
	C1278.183594,746.897339 1281.700073,745.164062 1286.215820,746.533875 
	C1290.901855,747.955261 1293.837646,751.639221 1293.848633,756.330750 
	C1293.878052,768.829163 1293.735962,781.329468 1293.916504,793.825317 
	C1293.993896,799.173035 1290.877563,801.589722 1286.557861,803.162476 
	C1282.039795,804.807312 1277.737427,803.623718 1275.745605,799.523132 
	C1273.179077,794.239197 1270.858643,788.455994 1270.255127,782.696777 
	C1269.538086,775.855286 1270.757812,768.810852 1271.239502,761.452271 
z"/>
<path fill="#182B53" opacity="1.000000" stroke="none" 
	d="
M705.606262,799.440491 
	C703.674377,803.283264 700.909607,806.544495 697.037415,805.390259 
	C693.983521,804.479919 690.380798,801.647949 689.219543,798.779602 
	C683.064514,783.577393 683.029297,768.050293 688.735596,752.609863 
	C689.302002,751.077393 690.193054,749.612793 691.172607,748.294250 
	C695.433044,742.559082 701.780579,742.599731 704.575378,749.093445 
	C707.086365,754.927734 708.483826,761.406921 709.360291,767.741760 
	C710.835388,778.403687 709.657288,788.959106 705.606262,799.440491 
z"/>
<path fill="#162951" opacity="1.000000" stroke="none" 
	d="
M386.979858,758.291870 
	C386.319031,766.858704 386.040649,775.016479 384.801300,783.025635 
	C384.214661,786.816772 382.017090,790.445801 380.142761,793.929443 
	C377.591492,798.671204 373.799011,800.729553 367.962067,800.571594 
	C351.488983,800.126038 334.993683,800.550781 318.513397,800.268311 
	C316.077393,800.226685 313.055481,798.793945 311.371582,797.002136 
	C305.912994,791.193604 303.936584,783.655884 303.187439,775.993652 
	C300.582825,749.353516 306.743195,724.700012 321.703369,702.572754 
	C335.501831,682.163757 353.719849,682.211060 367.842133,702.358582 
	C379.486908,718.971558 384.942169,737.833374 386.979858,758.291870 
M372.021698,784.024658 
	C372.021423,764.733887 372.006226,745.443115 372.037109,726.152344 
	C372.041656,723.307495 371.157562,720.683044 368.069550,721.234802 
	C366.568237,721.503052 364.453735,724.299927 364.431732,725.975952 
	C364.176300,745.429626 364.176453,764.889099 364.426178,784.342957 
	C364.448181,786.054932 366.704803,787.738281 367.923553,789.434998 
	C369.288818,787.925049 370.654114,786.415161 372.021698,784.024658 
M320.128632,789.002380 
	C325.052368,790.263428 325.829315,787.265625 325.829010,783.458740 
	C325.827454,764.650391 325.822296,745.842102 325.835358,727.033752 
	C325.837311,724.231018 325.670868,721.225830 322.116547,721.095093 
	C318.176361,720.950195 318.003326,724.069824 318.007568,727.086975 
	C318.034088,745.895325 317.984070,764.703796 318.083221,783.511658 
	C318.092163,785.212219 318.977203,786.908264 320.128632,789.002380 
M341.120728,767.499390 
	C341.120880,772.817810 341.157562,778.136658 341.106476,783.454590 
	C341.079132,786.300354 341.357697,789.243774 344.864655,789.344299 
	C348.761658,789.456055 348.962494,786.337952 348.958069,783.319519 
	C348.930573,764.538757 348.931732,745.758057 348.957703,726.977295 
	C348.961609,724.148926 348.763763,721.197021 345.220367,721.092468 
	C341.295258,720.976685 341.108063,724.111572 341.112640,727.110046 
	C341.132660,740.239929 341.120941,753.369812 341.120728,767.499390 
M347.467896,699.979919 
	C343.145508,699.985413 338.790680,699.692688 334.518188,700.156982 
	C333.007172,700.321106 331.696869,702.332214 330.294922,703.500061 
	C331.648132,704.913269 332.937286,707.467651 334.365356,707.547791 
	C341.656128,707.957275 348.992340,707.918030 356.288177,707.550049 
	C357.631287,707.482239 358.861542,705.177002 360.143860,703.904480 
	C358.739166,702.599426 357.525574,700.614197 355.883789,700.152771 
	C353.571747,699.503113 350.942322,699.982971 347.467896,699.979919 
z"/>
<path fill="#F4F5F7" opacity="1.000000" stroke="none" 
	d="
M372.020569,784.464966 
	C370.654114,786.415161 369.288818,787.925049 367.923523,789.434937 
	C366.704803,787.738281 364.448181,786.054932 364.426178,784.342957 
	C364.176453,764.889099 364.176300,745.429626 364.431732,725.975952 
	C364.453735,724.299927 366.568237,721.503052 368.069550,721.234802 
	C371.157562,720.683044 372.041656,723.307495 372.037109,726.152344 
	C372.006226,745.443115 372.021423,764.733887 372.020569,784.464966 
z"/>
<path fill="#F4F5F7" opacity="1.000000" stroke="none" 
	d="
M319.792023,788.804382 
	C318.977203,786.908264 318.092163,785.212219 318.083221,783.511658 
	C317.984070,764.703796 318.034088,745.895325 318.007568,727.086975 
	C318.003326,724.069824 318.176361,720.950195 322.116547,721.095093 
	C325.670868,721.225830 325.837311,724.231018 325.835358,727.033752 
	C325.822296,745.842102 325.827454,764.650391 325.829010,783.458740 
	C325.829315,787.265625 325.052368,790.263428 319.792023,788.804382 
z"/>
<path fill="#F4F5F7" opacity="1.000000" stroke="none" 
	d="
M341.120728,766.999512 
	C341.120941,753.369812 341.132660,740.239929 341.112640,727.110046 
	C341.108063,724.111572 341.295258,720.976685 345.220367,721.092468 
	C348.763763,721.197021 348.961609,724.148926 348.957703,726.977295 
	C348.931732,745.758057 348.930573,764.538757 348.958069,783.319519 
	C348.962494,786.337952 348.761658,789.456055 344.864655,789.344299 
	C341.357697,789.243774 341.079132,786.300354 341.106476,783.454590 
	C341.157562,778.136658 341.120880,772.817810 341.120728,766.999512 
z"/>
<path fill="#F4F5F7" opacity="1.000000" stroke="none" 
	d="
M347.958252,699.979919 
	C350.942322,699.982971 353.571747,699.503113 355.883789,700.152771 
	C357.525574,700.614197 358.739166,702.599426 360.143860,703.904480 
	C358.861542,705.177002 357.631287,707.482239 356.288177,707.550049 
	C348.992340,707.918030 341.656128,707.957275 334.365356,707.547791 
	C332.937286,707.467651 331.648132,704.913269 330.294922,703.500061 
	C331.696869,702.332214 333.007172,700.321106 334.518188,700.156982 
	C338.790680,699.692688 343.145508,699.985413 347.958252,699.979919 
z"/>
</svg>